<svg width="48" height="48" viewBox="0 0 48 48" fill="none" xmlns="http://www.w3.org/2000/svg">
<g id="art icon">
<path id="Vector" d="M38 15C38.5667 15 39.0417 14.8083 39.425 14.425C39.8083 14.0417 40 13.5667 40 13C40 12.4333 39.8083 11.9583 39.425 11.575C39.0417 11.1917 38.5667 11 38 11C37.4333 11 36.9583 11.1917 36.575 11.575C36.1917 11.9583 36 12.4333 36 13C36 13.5667 36.1917 14.0417 36.575 14.425C36.9583 14.8083 37.4333 15 38 15ZM30 15C30.5667 15 31.0417 14.8083 31.425 14.425C31.8083 14.0417 32 13.5667 32 13C32 12.4333 31.8083 11.9583 31.425 11.575C31.0417 11.1917 30.5667 11 30 11C29.4333 11 28.9583 11.1917 28.575 11.575C28.1917 11.9583 28 12.4333 28 13C28 13.5667 28.1917 14.0417 28.575 14.425C28.9583 14.8083 29.4333 15 30 15ZM29 21.8H39C39 20.6333 38.4917 19.7083 37.475 19.025C36.4583 18.3417 35.3 18 34 18C32.7 18 31.5417 18.3417 30.525 19.025C29.5083 19.7083 29 20.6333 29 21.8ZM14 44C10.6667 44 7.83333 42.8333 5.5 40.5C3.16667 38.1667 2 35.3333 2 32V18H26V32C26 35.3333 24.8333 38.1667 22.5 40.5C20.1667 42.8333 17.3333 44 14 44ZM14 40C16.2 40 18.0833 39.2167 19.65 37.65C21.2167 36.0833 22 34.2 22 32V22H6V32C6 34.2 6.78333 36.0833 8.35 37.65C9.91667 39.2167 11.8 40 14 40ZM34 30C33.1333 30 32.275 29.9083 31.425 29.725C30.575 29.5417 29.7667 29.2667 29 28.9V24.2C29.7333 24.7667 30.525 25.2083 31.375 25.525C32.225 25.8417 33.1 26 34 26C36.2 26 38.0833 25.2167 39.65 23.65C41.2167 22.0833 42 20.2 42 18V8H26V15H22V4H46V18C46 21.3333 44.8333 24.1667 42.5 26.5C40.1667 28.8333 37.3333 30 34 30ZM10 29C10.5667 29 11.0417 28.8083 11.425 28.425C11.8083 28.0417 12 27.5667 12 27C12 26.4333 11.8083 25.9583 11.425 25.575C11.0417 25.1917 10.5667 25 10 25C9.43333 25 8.95833 25.1917 8.575 25.575C8.19167 25.9583 8 26.4333 8 27C8 27.5667 8.19167 28.0417 8.575 28.425C8.95833 28.8083 9.43333 29 10 29ZM18 29C18.5667 29 19.0417 28.8083 19.425 28.425C19.8083 28.0417 20 27.5667 20 27C20 26.4333 19.8083 25.9583 19.425 25.575C19.0417 25.1917 18.5667 25 18 25C17.4333 25 16.9583 25.1917 16.575 25.575C16.1917 25.9583 16 26.4333 16 27C16 27.5667 16.1917 28.0417 16.575 28.425C16.9583 28.8083 17.4333 29 18 29ZM14 35.8C15.3 35.8 16.4583 35.4583 17.475 34.775C18.4917 34.0917 19 33.1667 19 32H9C9 33.1667 9.50833 34.0917 10.525 34.775C11.5417 35.4583 12.7 35.8 14 35.8Z" fill="white"/>
</g>
</svg>
