<svg width="48" height="48" viewBox="0 0 48 48" fill="none" xmlns="http://www.w3.org/2000/svg">
<g id="daily icon">
<path id="icon" d="M42.5 31.4V11.975C42.5 8.39273 39.6073 5.5 36.025 5.5H11.975C8.39273 5.5 5.5 8.39273 5.5 11.975V36.025C5.5 39.6073 8.39273 42.5 11.975 42.5H31.4L42.5 31.4ZM11.975 38.8C10.4445 38.8 9.2 37.5555 9.2 36.025V11.975C9.2 10.4445 10.4445 9.2 11.975 9.2H36.025C37.5555 9.2 38.8 10.4445 38.8 11.975V29.55H36.025C32.4427 29.55 29.55 32.4427 29.55 36.025V38.8H11.975ZM19.8627 19.8964C19.375 18.1809 17.5923 17.1718 15.8768 17.6595C14.1614 18.1473 13.1523 19.93 13.64 21.6623C13.7745 22.1332 14.01 22.5536 14.3127 22.9068L19.93 21.3259C20.0141 20.855 19.9973 20.3673 19.8627 19.8964ZM31.4336 16.6336C30.9627 14.9182 29.1632 13.9091 27.4477 14.3968C25.7323 14.8845 24.7232 16.6673 25.2109 18.3995C25.3455 18.8705 25.5809 19.2909 25.8836 19.6441L31.5009 18.0632C31.585 17.5923 31.5682 17.1045 31.4336 16.6336ZM33.0818 22.4191L15.2545 27.4477C17.6595 30.6264 21.8305 32.1736 25.8836 31.03C29.9368 29.8864 32.6782 26.3714 33.0818 22.4191Z" fill="black"/>
</g>
</svg>
