<svg width="48" height="48" viewBox="0 0 48 48" fill="none" xmlns="http://www.w3.org/2000/svg">
  <path d="M34.211 40.6111C33.4299 41.3799 32.175 41.375 31.4 40.6C30.625 39.825 30.6201 38.5701 31.3889 37.789L33.15 36L31.4001 34.2501C30.6248 33.4748 30.6193 32.2197 31.3876 31.4376C32.1656 30.6457 33.4401 30.6401 34.2251 31.4251L36 33.2L37.7363 31.4362C38.5152 30.6448 39.7898 30.6398 40.575 31.425C41.3602 32.2102 41.3552 33.4848 40.5638 34.2637L38.8 36L40.5749 37.7749C41.3599 38.5599 41.3543 39.8344 40.5624 40.6124C39.7803 41.3807 38.5252 41.3752 37.7499 40.5999L36 38.85L34.211 40.6111ZM12 38C12.5667 38 13.0417 37.8083 13.425 37.425C13.8083 37.0417 14 36.5667 14 36C14 35.4333 13.8083 34.9583 13.425 34.575C13.0417 34.1917 12.5667 34 12 34C11.4333 34 10.9583 34.1917 10.575 34.575C10.1917 34.9583 10 35.4333 10 36C10 36.5667 10.1917 37.0417 10.575 37.425C10.9583 37.8083 11.4333 38 12 38ZM12 42C10.3333 42 8.91667 41.4167 7.75 40.25C6.58333 39.0833 6 37.6667 6 36C6 34.3333 6.58333 32.9167 7.75 31.75C8.91667 30.5833 10.3333 30 12 30C13.2333 30 14.3583 30.3417 15.375 31.025C16.3917 31.7083 17.1333 32.6333 17.6 33.8C18.9 33.4333 19.9583 32.7167 20.775 31.65C21.5917 30.5833 22 29.3667 22 28V20C22 17.2333 22.975 14.875 24.925 12.925C26.875 10.975 29.2333 10 32 10H34.3L32.5642 8.26421C31.7832 7.48317 31.794 6.20605 32.575 5.425C33.356 4.64395 34.6332 4.63317 35.4142 5.41421L40.5858 10.5858C41.3668 11.3668 41.3668 12.6332 40.5858 13.4142L35.4018 18.5982C34.6256 19.3744 33.365 19.3761 32.582 18.6069C31.7935 17.8322 31.779 16.561 32.5544 15.7733L34.3 14H32C30.3333 14 28.9167 14.5833 27.75 15.75C26.5833 16.9167 26 18.3333 26 20V28C26 30.4333 25.2167 32.575 23.65 34.425C22.0833 36.275 20.1 37.4167 17.7 37.85C17.3 39.0833 16.575 40.0833 15.525 40.85C14.475 41.6167 13.3 42 12 42ZM10.211 16.6111C9.42993 17.3799 8.17498 17.375 7.4 16.6C6.62502 15.825 6.62008 14.5701 7.38893 13.789L9.15 12L7.40005 10.2501C6.62483 9.47483 6.61928 8.21967 7.38761 7.43761C8.16562 6.64571 9.44007 6.64007 10.2251 7.42506L12 9.2L13.7363 7.43618C14.5152 6.64483 15.7898 6.63982 16.575 7.425C17.3602 8.21018 17.3552 9.48476 16.5638 10.2637L14.8 12L16.5749 13.7749C17.3599 14.5599 17.3543 15.8344 16.5624 16.6124C15.7803 17.3807 14.5252 17.3752 13.7499 16.5999L12 14.85L10.211 16.6111Z" fill="#191B24"/>
</svg>