<svg width="48" height="48" viewBox="0 0 48 48" fill="none" xmlns="http://www.w3.org/2000/svg">
<g id="tactic_24dp_FILL0_wght400_GRAD0_opsz24 3">
<path id="Vector" d="M32.8 42L30 39.2L33.15 36L30 32.85L32.8 30L36 33.2L39.15 30L42 32.85L38.8 36L42 39.2L39.15 42L36 38.85L32.8 42ZM12 38C12.5667 38 13.0417 37.8083 13.425 37.425C13.8083 37.0417 14 36.5667 14 36C14 35.4333 13.8083 34.9583 13.425 34.575C13.0417 34.1917 12.5667 34 12 34C11.4333 34 10.9583 34.1917 10.575 34.575C10.1917 34.9583 10 35.4333 10 36C10 36.5667 10.1917 37.0417 10.575 37.425C10.9583 37.8083 11.4333 38 12 38ZM12 42C10.3333 42 8.91667 41.4167 7.75 40.25C6.58333 39.0833 6 37.6667 6 36C6 34.3333 6.58333 32.9167 7.75 31.75C8.91667 30.5833 10.3333 30 12 30C13.2333 30 14.3583 30.3417 15.375 31.025C16.3917 31.7083 17.1333 32.6333 17.6 33.8C18.9 33.4333 19.9583 32.7167 20.775 31.65C21.5917 30.5833 22 29.3667 22 28V20C22 17.2333 22.975 14.875 24.925 12.925C26.875 10.975 29.2333 10 32 10H34.3L31.15 6.85L34 4L42 12L34 20L31.15 17.2L34.3 14H32C30.3333 14 28.9167 14.5833 27.75 15.75C26.5833 16.9167 26 18.3333 26 20V28C26 30.4333 25.2167 32.575 23.65 34.425C22.0833 36.275 20.1 37.4167 17.7 37.85C17.3 39.0833 16.575 40.0833 15.525 40.85C14.475 41.6167 13.3 42 12 42ZM8.8 18L6 15.2L9.15 12L6 8.85L8.8 6L12 9.2L15.15 6L18 8.85L14.8 12L18 15.2L15.15 18L12 14.85L8.8 18Z" fill="white"/>
</g>
</svg>
