<svg width="48" height="48" viewBox="0 0 48 48" fill="none" xmlns="http://www.w3.org/2000/svg">
<path d="M30.15 40H32.95V35.85L38.05 34.65C38.75 34.4833 39.475 34.2917 40.225 34.075C40.975 33.8583 41.35 33.5167 41.35 33.05C41.35 32.7833 41.2167 32.5417 40.95 32.325C40.6833 32.1083 40.2333 31.9 39.6 31.7C38.3333 31.3333 37.3667 30.7667 36.7 30C36.0333 29.2333 35.7333 28.4167 35.8 27.55C35.8667 26.85 36.1917 26.225 36.775 25.675C37.3583 25.125 38.1833 24.6667 39.25 24.3C40.1833 23.9667 40.875 23.5917 41.325 23.175C41.775 22.7583 42 22.2667 42 21.7C42 21.0333 41.7167 20.525 41.15 20.175C40.5833 19.825 39.9667 19.7667 39.3 20C39.1 20.0667 38.8917 20.1167 38.675 20.15C38.4583 20.1833 38.25 20.2 38.05 20.2C37.1833 20.2 36.4583 19.8667 35.875 19.2C35.2917 18.5333 35 17.7167 35 16.75C35 15.8833 35.225 15.0917 35.675 14.375C36.125 13.6583 36.35 12.8667 36.35 12C36.35 11.4333 36.1083 10.9583 35.625 10.575C35.1417 10.1917 34.55 10 33.85 10C32.8833 10 32.2083 10.2083 31.825 10.625C31.4417 11.0417 31.25 11.8333 31.25 13C31.25 13.5667 31.275 14.1167 31.325 14.65C31.375 15.1833 31.4 15.7333 31.4 16.3C31.4 17.8 31.1333 18.9 30.6 19.6C30.0667 20.3 29.2333 20.65 28.1 20.65C27.7333 20.65 27.35 20.6 26.95 20.5C26.55 20.4 26.1667 20.35 25.8 20.35C25.6 20.35 25.4417 20.3917 25.325 20.475C25.2083 20.5583 25.15 20.6833 25.15 20.85C25.15 21.1833 25.35 21.5167 25.75 21.85C26.15 22.1833 26.5333 22.5 26.9 22.8C27.7667 23.5667 28.4 24.3 28.8 25C29.2 25.7 29.4 26.4 29.4 27.1C29.4 28 29.075 28.7667 28.425 29.4C27.775 30.0333 26.9833 30.35 26.05 30.35C25.6833 30.35 25.3333 30.3167 25 30.25C24.6667 30.1833 24.3167 30.1333 23.95 30.1C23.0167 30.0333 22.3 30.1167 21.8 30.35C21.3 30.5833 21.05 30.9333 21.05 31.4C21.05 31.8667 21.2667 32.25 21.7 32.55C22.1333 32.85 22.7667 33.0667 23.6 33.2L30.15 34.25V40ZM8.4759 40.183C8.01949 41.1871 6.83381 41.631 5.82877 41.1767C4.8208 40.721 4.37158 39.5325 4.82932 38.5255L13.1741 20.167C13.6305 19.1629 14.8162 18.719 15.8212 19.1733C16.8292 19.629 17.2784 20.8175 16.8207 21.8245L8.4759 40.183ZM28.15 44C27.0454 44 26.15 43.1046 26.15 42V37.6L23.3 37.2C21.4667 36.9333 19.975 36.275 18.825 35.225C17.675 34.175 17.1 32.95 17.1 31.55C17.1 29.95 17.7583 28.6083 19.075 27.525C20.3917 26.4417 21.9667 25.95 23.8 26.05C23.9667 26.05 24.1083 26.0583 24.225 26.075C24.3417 26.0917 24.4667 26.1167 24.6 26.15C24.3333 25.8833 24.0833 25.6417 23.85 25.425C23.6167 25.2083 23.4 24.9833 23.2 24.75C22.5333 24.0167 22.05 23.3417 21.75 22.725C21.45 22.1083 21.3 21.4833 21.3 20.85C21.3 19.5833 21.6583 18.5417 22.375 17.725C23.0917 16.9083 24.0333 16.5 25.2 16.5C25.4333 16.5 25.75 16.5083 26.15 16.525C26.55 16.5417 26.9833 16.5833 27.45 16.65C27.5167 15.9833 27.5167 15.3 27.45 14.6C27.3833 13.9 27.35 13.2167 27.35 12.55C27.35 10.45 27.9167 8.83333 29.05 7.7C30.1833 6.56667 31.8 6 33.9 6C35.7667 6 37.325 6.53333 38.575 7.6C39.825 8.66667 40.4333 9.96667 40.4 11.5C40.4 12.2667 40.2667 13.0167 40 13.75C39.7333 14.4833 39.4333 15.2 39.1 15.9C39.2667 15.8667 39.4417 15.8417 39.625 15.825C39.8083 15.8083 39.9833 15.8 40.15 15.8C41.75 15.8 43.125 16.375 44.275 17.525C45.425 18.675 46 20.0833 46 21.75C46 23.1833 45.4917 24.475 44.475 25.625C43.4583 26.775 42.2667 27.5333 40.9 27.9C41.1333 27.9667 41.35 28.0333 41.55 28.1C41.75 28.1667 41.95 28.25 42.15 28.35C43.1167 28.8167 43.9 29.475 44.5 30.325C45.1 31.175 45.4 32.1 45.4 33.1C45.4 34.3667 44.8417 35.475 43.725 36.425C42.6083 37.375 41.0167 38.1 38.95 38.6L36.95 39.1V42C36.95 43.1046 36.0546 44 34.95 44H28.15ZM8.325 19.725C7.54395 20.506 6.24332 20.5276 5.63209 19.6075C5.26922 19.0613 4.96685 18.4838 4.725 17.875C4.24167 16.6583 4 15.3833 4 14.05C4 11.25 4.96667 8.875 6.9 6.925C8.83333 4.975 11.2 4 14 4C15.3333 4 16.6083 4.25 17.825 4.75C18.4412 5.00322 19.0253 5.31629 19.5773 5.6892C20.4834 6.30128 20.4732 7.5768 19.7 8.35C18.9268 9.1232 17.6785 9.0832 16.6922 8.61104C16.5724 8.55366 16.45 8.49998 16.325 8.45C15.575 8.15 14.8 8 14 8C12.3333 8 10.9167 8.58333 9.75 9.75C8.58333 10.9167 8 12.3333 8 14C8 14.8 8.15 15.575 8.45 16.325C8.49746 16.4436 8.54826 16.56 8.60239 16.6741C9.07599 17.672 9.10605 18.944 8.325 19.725Z" fill="#191B24"/>
</svg>
