<svg width="48" height="48" viewBox="0 0 48 48" fill="none" xmlns="http://www.w3.org/2000/svg">
  <path d="M16 40C14.9 40 13.9583 39.6083 13.175 38.825C12.3917 38.0417 12 37.1 12 36V34C12 31.7909 13.7909 30 16 30H18V25.5C16.8333 25.4333 15.725 25.175 14.675 24.725C13.625 24.275 12.6667 23.6 11.8 22.7V20.5H9.5L4.25223 15.2522C3.53739 14.5374 3.45335 13.3819 4.20065 12.701C5.14916 11.8369 6.23227 11.1865 7.45 10.75C9.21667 10.1167 11 9.8 12.8 9.8C13.7 9.8 14.575 9.86667 15.425 10C16.275 10.1333 17.1333 10.3833 18 10.75C18 9.23122 19.2312 8 20.75 8H38C40.2091 8 42 9.79086 42 12V34C42 35.6667 41.4167 37.0833 40.25 38.25C39.0833 39.4167 37.6667 40 36 40H16ZM22 30H30C32.2091 30 34 31.7909 34 34C34 34.5667 34.1917 35.0417 34.575 35.425C34.9583 35.8083 35.4333 36 36 36C36.5667 36 37.0417 35.8083 37.425 35.425C37.8083 35.0417 38 34.5667 38 34V15C38 13.3431 36.6569 12 35 12H23.2C22.5373 12 22 12.5373 22 13.2L34 25.2V28H31.2L25.5 22.3L25.1 22.7C24.6333 23.1667 24.1417 23.5833 23.625 23.95C23.1083 24.3167 22.5667 24.6 22 24.8V30ZM11.2 16.5H15.8V20.8C16.2 21.0667 16.6167 21.25 17.05 21.35C17.4833 21.45 17.9333 21.5 18.4 21.5C19.1667 21.5 19.8583 21.3833 20.475 21.15C21.0917 20.9167 21.7 20.5 22.3 19.9L22.7 19.5L19.9 16.7C18.9333 15.7333 17.85 15.0083 16.65 14.525C15.45 14.0417 14.1667 13.8 12.8 13.8C12.1333 13.8 11.5 13.85 10.9 13.95C10.3 14.05 9.7 14.2 9.1 14.4L11.2 16.5ZM30 34H16V36H30.3C30.2 35.7 30.125 35.3833 30.075 35.05C30.025 34.7167 30 34.3667 30 34Z" fill="#191B24"/>
</svg>