<svg width="48" height="48" viewBox="0 0 48 48" fill="none" xmlns="http://www.w3.org/2000/svg">
<g id="tech icon">
<path id="Vector" d="M10 42C8.9 42 7.95833 41.6083 7.175 40.825C6.39167 40.0417 6 39.1 6 38V18C6 14.6667 7.16667 11.8333 9.5 9.5C11.8333 7.16667 14.6667 6 18 6H30C33.3333 6 36.1667 7.16667 38.5 9.5C40.8333 11.8333 42 14.6667 42 18V38C42 39.1 41.6083 40.0417 40.825 40.825C40.0417 41.6083 39.1 42 38 42H10ZM10 38H38V18C38 15.8 37.2167 13.9167 35.65 12.35C34.0833 10.7833 32.2 10 30 10H18C15.8 10 13.9167 10.7833 12.35 12.35C10.7833 13.9167 10 15.8 10 18V38ZM18 24C16.9 24 15.9583 23.6083 15.175 22.825C14.3917 22.0417 14 21.1 14 20C14 18.9 14.3917 17.9583 15.175 17.175C15.9583 16.3917 16.9 16 18 16C19.1 16 20.0417 16.3917 20.825 17.175C21.6083 17.9583 22 18.9 22 20C22 21.1 21.6083 22.0417 20.825 22.825C20.0417 23.6083 19.1 24 18 24ZM30 24C28.9 24 27.9583 23.6083 27.175 22.825C26.3917 22.0417 26 21.1 26 20C26 18.9 26.3917 17.9583 27.175 17.175C27.9583 16.3917 28.9 16 30 16C31.1 16 32.0417 16.3917 32.825 17.175C33.6083 17.9583 34 18.9 34 20C34 21.1 33.6083 22.0417 32.825 22.825C32.0417 23.6083 31.1 24 30 24ZM14 38V34C14 32.9 14.3917 31.9583 15.175 31.175C15.9583 30.3917 16.9 30 18 30H30C31.1 30 32.0417 30.3917 32.825 31.175C33.6083 31.9583 34 32.9 34 34V38H30V34H26V38H22V34H18V38H14Z" fill="white"/>
</g>
</svg>
